<?xml version="1.0" standalone="no"?>
<!DOCTYPE svg PUBLIC "-//W3C//DTD SVG 20010904//EN"
 "http://www.w3.org/TR/2001/REC-SVG-20010904/DTD/svg10.dtd">
<svg version="1.0" xmlns="http://www.w3.org/2000/svg"
 width="300.000000pt" height="300.000000pt" viewBox="0 0 300.000000 300.000000"
 preserveAspectRatio="xMidYMid meet">
<metadata>
Created by potrace 1.10, written by Peter Selinger 2001-2011
</metadata>
<g transform="translate(0.000000,300.000000) scale(0.100000,-0.100000)"
fill="#000000" stroke="#000000">
<path d="M1400 2968 c-3 -3 -38 -8 -79 -12 -204 -17 -473 -120 -666 -254 -108
-75 -297 -267 -366 -372 -107 -161 -187 -347 -224 -521 -41 -191 -41 -427 0
-618 116 -548 555 -994 1100 -1119 498 -115 1005 30 1365 388 199 198 331 429
394 689 126 519 -34 1059 -422 1422 -219 204 -479 330 -792 383 -49 9 -304 19
-310 14z m340 -54 c222 -34 474 -147 656 -295 460 -374 644 -999 460 -1563
-162 -495 -596 -872 -1106 -962 -128 -23 -374 -23 -496 -1 -531 96 -970 487
-1123 1000 -86 286 -81 589 14 874 71 212 182 391 345 553 215 214 482 350
788 400 133 22 298 20 462 -6z"/>
<path d="M1349 2913 c-2 -28 3 -162 8 -181 5 -22 9 -23 80 -20 48 1 77 7 80
15 9 23 -6 29 -66 23 l-61 -6 0 28 c0 25 4 28 33 28 48 0 77 10 77 27 0 12
-12 14 -55 11 -46 -3 -55 0 -59 16 -8 30 1 36 60 36 41 0 54 4 54 15 0 12 -15
15 -75 15 -41 0 -75 -3 -76 -7z"/>
<path d="M1795 2878 c-5 -14 -55 -180 -55 -184 0 -5 92 -24 118 -24 43 0 74
39 80 100 6 61 -9 82 -76 104 -55 19 -61 20 -67 4z m69 -38 c14 -5 29 -18 35
-28 14 -26 -4 -89 -29 -102 -17 -9 -80 -4 -80 7 0 19 36 133 41 133 4 0 19 -4
33 -10z"/>
<path d="M1100 2866 c-25 -7 -44 -17 -44 -22 1 -5 12 -51 24 -102 18 -74 26
-92 39 -90 17 4 19 25 6 71 -7 25 -5 27 22 27 19 0 39 -10 58 -30 27 -28 75
-41 75 -21 0 5 -18 25 -40 44 -31 26 -37 36 -25 40 20 8 20 61 -1 81 -18 19
-51 19 -114 2z m88 -44 c3 -17 -4 -23 -35 -31 -41 -12 -57 -4 -51 25 2 11 15
21 33 25 41 9 49 6 53 -19z"/>
<path d="M868 2774 c-41 -21 -68 -41 -68 -50 0 -12 6 -15 20 -10 11 3 28 8 38
11 13 4 24 -11 51 -70 36 -78 37 -80 60 -66 11 7 5 24 -27 85 l-40 77 30 15
c27 14 34 34 12 40 -5 2 -39 -13 -76 -32z"/>
<path d="M2033 2707 c-72 -64 -80 -73 -65 -85 14 -10 20 -8 41 12 23 24 25 24
58 8 31 -15 34 -20 31 -50 -3 -24 1 -36 13 -43 10 -5 20 -6 22 -2 3 5 8 55 12
112 5 82 4 106 -7 112 -7 5 -15 9 -18 9 -3 -1 -42 -33 -87 -73z m79 -12 c-5
-39 -5 -39 -34 -24 -20 11 -20 11 3 35 30 32 36 30 31 -11z"/>
<path d="M2240 2595 c-37 -45 -60 -82 -56 -90 9 -25 22 -17 57 35 56 82 56 67
2 -66 -2 -6 2 -16 10 -22 10 -9 21 -6 48 12 95 64 97 64 47 4 -41 -48 -46 -57
-33 -68 9 -7 17 -11 19 -9 2 2 32 39 66 82 57 74 60 80 43 92 -19 14 -45 3
-120 -52 -18 -13 -33 -21 -33 -16 0 4 12 38 26 75 22 55 25 70 14 83 -7 8 -16
15 -21 15 -4 0 -35 -34 -69 -75z"/>
<path d="M1360 2650 c-506 -64 -917 -466 -990 -969 -19 -126 -8 -332 23 -453
95 -364 382 -676 731 -793 554 -186 1139 52 1400 570 79 158 118 326 118 510
0 236 -69 459 -202 655 -143 211 -407 391 -667 455 -110 27 -304 39 -413 25z
m84 -52 c-4 -7 -10 -28 -14 -48 -5 -31 -9 -35 -45 -41 -40 -7 -85 -46 -85 -75
0 -28 56 -74 90 -74 17 0 32 -6 35 -12 2 -7 5 -55 7 -105 l4 -93 -64 0 c-119
0 -172 -49 -172 -158 0 -52 4 -64 29 -91 23 -25 37 -31 70 -31 l41 0 0 -423 0
-423 -30 -22 c-16 -13 -30 -30 -30 -39 0 -9 -18 -33 -40 -53 -46 -43 -52 -81
-18 -117 21 -23 23 -23 284 -23 258 0 264 0 284 22 32 35 27 81 -14 115 -18
15 -37 38 -40 50 -4 12 -20 33 -37 47 l-29 25 0 420 0 421 44 0 c37 0 48 5 70
31 32 38 40 68 33 121 -11 83 -72 128 -173 128 l-60 0 4 93 c2 50 5 98 7 105
3 6 20 12 40 12 25 0 44 8 60 25 49 48 22 110 -55 123 -41 7 -45 10 -50 43 -4
19 -10 40 -14 47 -20 33 188 -4 329 -59 182 -70 370 -214 485 -368 97 -132
174 -316 200 -483 18 -113 9 -341 -19 -448 -27 -106 -123 -304 -189 -390 -291
-383 -784 -530 -1250 -374 -362 120 -650 460 -717 843 -17 97 -19 277 -5 371
63 395 357 742 735 868 132 44 317 69 299 40z m106 -70 l0 -63 65 3 65 4 0
-37 0 -37 -65 4 -65 3 0 -117 0 -118 -40 0 -40 0 0 118 0 117 -65 -3 -65 -4 0
37 0 37 65 -4 65 -3 0 63 0 62 40 0 40 0 0 -62z m201 -447 c24 -25 29 -38 29
-79 0 -35 -6 -57 -21 -76 -26 -32 -43 -33 -74 -1 -31 30 -32 74 -5 106 l20 24
19 -23 c11 -13 17 -30 14 -37 -7 -20 -23 -19 -23 0 0 8 -4 15 -10 15 -16 0
-12 -46 6 -60 19 -16 39 1 49 42 5 21 1 33 -19 52 l-25 26 -203 0 c-234 0
-248 -4 -248 -69 0 -23 6 -44 16 -52 14 -11 19 -10 35 9 10 13 15 30 12 39 -6
14 -7 14 -18 -1 -17 -22 -25 -20 -25 7 0 22 16 47 31 47 19 0 39 -35 39 -66 0
-34 -35 -84 -58 -84 -45 0 -76 92 -52 150 23 55 43 59 273 60 l209 0 29 -29z
m-103 -57 c-3 -13 -24 -16 -143 -16 -122 -1 -140 1 -143 16 -3 14 13 16 143
16 128 0 146 -2 143 -16z m-8 -74 c0 -20 -5 -20 -132 -18 -117 3 -133 5 -136
21 -3 15 8 17 132 17 130 0 136 -1 136 -20z m-120 -496 c0 -379 -2 -434 -15
-434 -13 0 -15 55 -15 433 0 239 3 437 6 440 4 4 11 4 15 1 5 -3 9 -201 9
-440z m58 -5 c-2 -281 -7 -434 -13 -434 -11 0 -20 847 -10 874 4 9 9 11 15 5
7 -7 9 -171 8 -445z m-178 6 c0 -284 -3 -431 -10 -433 -7 -3 -10 140 -10 433
0 293 3 436 10 433 7 -2 10 -149 10 -433z m60 -1 c0 -292 -3 -435 -10 -432 -8
2 -15 636 -10 863 0 3 5 5 10 5 7 0 10 -152 10 -436z m170 1 c0 -283 -3 -435
-10 -435 -7 0 -10 152 -10 435 0 283 3 435 10 435 7 0 10 -152 10 -435z m68
-502 c2 -13 -1 -23 -7 -23 -128 -5 -366 1 -374 9 -5 5 -7 17 -4 26 6 13 30 15
194 13 186 -3 188 -3 191 -25z m72 -82 c5 -11 10 -29 10 -40 0 -21 -4 -21
-270 -21 l-270 0 0 34 c0 19 6 37 13 39 6 3 123 6 259 6 235 1 248 0 258 -18z"/>
<path d="M643 2630 c-37 -22 -53 -48 -53 -85 0 -60 55 -115 116 -115 36 0 94
59 94 97 0 41 -35 92 -75 109 -43 18 -44 18 -82 -6z m88 -49 c33 -33 37 -66
12 -93 -34 -37 -99 -11 -117 48 -8 26 28 74 55 74 12 0 34 -13 50 -29z"/>
<path d="M444 2448 c-7 -11 -1 -17 71 -74 l30 -24 -89 3 c-59 1 -90 -2 -93 -9
-4 -13 135 -133 153 -134 7 0 14 6 17 14 3 8 -16 29 -51 55 l-57 42 95 -3 c71
-2 95 0 95 10 0 12 -140 132 -155 132 -5 0 -12 -5 -16 -12z"/>
<path d="M2472 2390 c-40 -33 -73 -62 -73 -65 -1 -4 20 -33 46 -66 38 -49 50
-58 61 -48 12 10 9 19 -21 55 -40 49 -41 52 -17 70 15 12 21 8 54 -29 29 -33
39 -39 49 -30 10 10 6 21 -20 54 -31 38 -32 42 -17 57 15 16 19 13 55 -28 27
-31 43 -42 50 -35 7 7 -4 28 -35 68 -25 31 -49 57 -52 57 -4 -1 -40 -28 -80
-60z"/>
<path d="M317 1084 c-3 -4 -2 -15 4 -25 8 -16 4 -21 -24 -33 -19 -7 -43 -17
-55 -20 -23 -8 -31 -36 -9 -36 6 0 32 9 56 20 53 24 48 24 61 0 9 -17 4 -23
-44 -47 -42 -21 -53 -31 -47 -42 8 -12 13 -12 35 3 24 15 27 15 32 1 4 -9 -2
-32 -12 -50 -14 -26 -15 -38 -7 -46 8 -8 16 -3 28 21 12 22 22 31 34 27 25 -6
51 10 51 33 0 10 -15 50 -34 89 -18 38 -36 79 -39 91 -5 20 -18 26 -30 14z
m69 -169 c4 -14 3 -29 0 -33 -9 -8 -46 39 -40 50 11 17 34 7 40 -17z"/>
<path d="M2656 1047 c-14 -15 -26 -35 -26 -45 0 -49 77 -95 120 -72 23 12 39
59 30 85 -11 28 -31 44 -68 51 -25 5 -36 1 -56 -19z m74 -17 c14 0 31 -37 24
-54 -3 -8 -15 -18 -25 -21 -23 -8 -69 19 -69 40 0 20 30 47 47 41 8 -3 19 -6
23 -6z"/>
<path d="M2590 918 c-40 -43 -13 -107 51 -123 32 -8 75 26 85 67 5 21 1 30
-21 44 -27 18 -28 17 -46 -5 -11 -13 -19 -27 -19 -32 0 -15 22 -10 35 8 16 21
25 5 14 -25 -12 -31 -34 -37 -65 -17 -31 20 -29 56 4 70 12 5 22 15 22 22 0
21 -37 15 -60 -9z"/>
<path d="M378 829 l-57 -39 27 -45 c15 -24 33 -45 40 -45 18 0 15 18 -9 52
-18 25 -19 32 -8 39 14 8 27 -3 48 -40 5 -8 14 -11 20 -7 8 6 6 17 -9 41 -15
24 -17 35 -9 41 11 6 48 -31 49 -48 0 -10 30 -11 30 -2 0 10 -54 94 -60 93 -3
0 -31 -18 -62 -40z"/>
<path d="M2510 784 c0 -13 32 -63 77 -123 2 -3 8 0 14 6 8 8 7 17 -2 32 -17
26 0 46 38 46 53 0 33 22 -34 39 -84 20 -93 20 -93 0z"/>
<path d="M447 730 c-33 -26 -41 -53 -26 -82 16 -30 28 -38 62 -38 17 0 27 5
27 15 0 10 -10 15 -29 15 -51 0 -48 63 4 76 33 8 45 -2 45 -37 0 -39 24 -34
28 5 7 59 -60 86 -111 46z"/>
<path d="M2435 693 c-14 -15 -25 -31 -25 -34 0 -9 97 -89 107 -89 14 0 53 57
53 78 0 19 -70 72 -95 72 -8 0 -26 -12 -40 -27z m55 -18 c0 -16 -27 -32 -37
-21 -7 7 16 36 28 36 5 0 9 -7 9 -15z m50 -27 c0 -24 -18 -41 -34 -35 -14 5
-15 11 -6 27 12 22 40 27 40 8z"/>
<path d="M534 621 l-50 -49 39 -42 c28 -30 42 -39 50 -31 8 8 3 19 -18 41 -23
24 -26 33 -17 42 10 10 18 6 37 -17 18 -23 26 -27 36 -18 9 9 5 17 -17 37 -24
20 -27 27 -16 38 11 11 17 8 34 -14 21 -29 48 -37 48 -15 0 12 -60 77 -70 77
-3 0 -28 -22 -56 -49z"/>
<path d="M658 501 c-26 -32 -44 -62 -41 -65 13 -13 30 -4 47 25 24 41 30 31
10 -16 -22 -53 -6 -65 42 -29 31 24 36 26 26 8 -6 -11 -18 -26 -26 -33 -15
-13 -13 -31 3 -31 15 0 93 109 86 120 -10 16 -25 12 -62 -16 -19 -14 -36 -24
-39 -21 -3 2 3 23 12 47 15 36 15 43 2 56 -13 13 -20 7 -60 -45z"/>
<path d="M2291 550 c-9 -5 -12 -18 -8 -39 7 -33 2 -36 -37 -22 -18 7 -27 6
-35 -3 -9 -11 -1 -16 35 -26 27 -8 52 -23 61 -37 16 -24 43 -31 43 -11 0 6 -7
19 -15 28 -9 9 -17 38 -19 64 -4 54 -7 58 -25 46z"/>
<path d="M2160 443 c0 -10 4 -34 9 -53 5 -19 12 -47 15 -62 4 -19 11 -26 21
-22 10 4 13 14 9 28 -8 34 19 53 52 36 16 -9 28 -10 34 -4 7 7 -11 25 -51 52
-65 45 -89 52 -89 25z"/>
<path d="M797 403 c-54 -42 -69 -63 -47 -63 6 0 19 5 29 12 26 16 55 -7 47
-38 -4 -14 -1 -24 9 -28 10 -3 16 2 19 17 9 43 26 128 26 131 0 2 -6 6 -13 9
-8 3 -39 -15 -70 -40z"/>
<path d="M891 344 c-36 -77 -35 -74 -16 -74 9 0 20 12 25 26 9 22 13 24 25 14
8 -7 15 -24 15 -39 0 -27 16 -51 33 -51 5 0 6 18 2 40 -5 32 -4 40 9 40 8 0
19 7 24 15 9 17 42 10 42 -9 0 -6 -9 -30 -19 -53 -11 -23 -17 -44 -13 -47 15
-16 30 -1 46 49 16 47 21 53 37 45 16 -9 39 4 27 15 -11 11 -101 44 -108 40
-5 -3 -11 -1 -15 5 -3 6 -24 19 -45 30 l-38 20 -31 -66z m70 16 c20 -11 26
-40 8 -40 -23 0 -48 21 -43 35 7 18 10 18 35 5z"/>
<path d="M2062 403 c-23 -9 -34 -41 -21 -64 9 -19 17 -21 55 -15 46 6 63 -4
39 -24 -9 -7 -26 -9 -45 -5 -31 7 -39 -2 -18 -23 29 -29 98 1 98 42 0 35 -22
48 -70 40 -34 -6 -42 -4 -38 7 3 8 18 15 34 15 45 2 47 3 34 19 -12 15 -43 18
-68 8z"/>
<path d="M1986 361 c-9 -13 47 -130 62 -131 17 0 15 11 -14 79 -26 59 -37 71
-48 52z"/>
<path d="M1888 324 c-4 -3 5 -31 18 -61 14 -31 23 -60 22 -65 -2 -5 -23 18
-47 51 -45 62 -55 69 -66 51 -8 -12 -23 -149 -17 -155 10 -10 32 10 32 30 0
31 39 41 57 16 12 -18 14 -18 73 2 35 12 60 27 60 35 0 14 -13 13 -52 -3 -13
-5 -20 4 -34 49 -16 51 -30 66 -46 50z"/>
<path d="M1121 257 c-24 -71 -26 -87 -8 -87 19 0 58 137 41 144 -8 3 -20 -16
-33 -57z"/>
<path d="M1174 273 c-3 -16 -10 -45 -15 -66 -10 -37 -6 -57 10 -57 5 0 11 14
15 31 8 39 26 34 49 -14 9 -20 24 -37 32 -37 14 0 14 4 0 35 -13 33 -13 37 5
55 32 32 22 55 -31 70 -50 15 -58 13 -65 -17z m72 -17 c18 -14 18 -15 2 -21
-24 -9 -48 1 -48 20 0 19 20 19 46 1z"/>
<path d="M1715 281 c-27 -4 -41 -12 -43 -24 -3 -14 1 -17 22 -11 23 5 25 3 31
-33 12 -77 15 -83 31 -76 10 4 14 13 10 27 -19 82 -19 96 3 96 12 0 21 6 21
15 0 16 -8 16 -75 6z"/>
<path d="M1306 271 c-2 -4 -7 -36 -10 -72 -7 -64 -6 -67 16 -73 44 -11 88 -7
88 9 0 11 -11 15 -40 15 -34 0 -40 3 -40 21 0 19 4 20 40 14 33 -6 40 -4 40 9
0 12 -10 16 -35 16 -24 0 -35 5 -35 15 0 11 11 15 41 15 57 0 46 23 -15 31
-26 3 -49 3 -50 0z"/>
<path d="M1432 248 c-28 -28 -9 -61 41 -73 15 -4 27 -13 27 -21 0 -19 -49 -18
-56 1 -8 19 -34 20 -34 1 0 -19 39 -46 67 -46 27 0 53 25 53 52 0 14 -12 24
-40 35 -22 9 -39 21 -37 27 6 17 24 18 40 1 15 -15 37 -20 37 -9 0 3 -5 14
-10 25 -12 22 -68 27 -88 7z"/>
</g>
</svg>
